<svg xmlns="http://www.w3.org/2000/svg" width="1222" height="827" viewBox="0 0 1222 827">
<rect width="100%" height="100%" fill="#fff"/>
<text x="80" y="50" font-size="18" font-family="sans-serif" font-weight="bold">РАЗМЕТКА ФП-5 (вид спереди, снаружи). Размеры в мм от краёв панели — ВЕРТИКАЛЬ УСЛОВНА (shelf_top_z = TO_MEASURE)</text>
<rect x="80.0" y="110.0" width="1061.7" height="487.3" stroke="#000" fill="none" stroke-width="1.8"/>
<rect x="113.0" y="143.0" width="995.7" height="421.3" stroke="#c66" fill="none" stroke-width="0.8" stroke-dasharray="4,3"/>
<text x="117.4" y="160.6" font-size="9" font-family="sans-serif" text-anchor="start" fill="#c66">keep-out 15 мм от краёв (отбортовка 10 внутрь)</text>
<circle cx="395.3" cy="353.6" r="151.8" stroke="#000" fill="none" stroke-width="1.4"/>
<circle cx="395.3" cy="353.6" r="154.0" stroke="#888" fill="none" stroke-width="0.8" stroke-dasharray="3,3"/>
<rect x="230.3" y="188.7" width="330.0" height="330.0" stroke="#06c" fill="none" stroke-width="0.8" stroke-dasharray="3,2"/>
<circle cx="258.3" cy="490.6" r="5.0" stroke="#000" fill="none" stroke-width="1.2"/>
<line x1="249.5" y1="490.6" x2="267.1" y2="490.6" stroke="#000" stroke-width="0.5"/>
<line x1="258.3" y1="499.4" x2="258.3" y2="481.8" stroke="#000" stroke-width="0.5"/>
<circle cx="258.3" cy="216.7" r="5.0" stroke="#000" fill="none" stroke-width="1.2"/>
<line x1="249.5" y1="216.7" x2="267.1" y2="216.7" stroke="#000" stroke-width="0.5"/>
<line x1="258.3" y1="225.5" x2="258.3" y2="207.9" stroke="#000" stroke-width="0.5"/>
<circle cx="532.2" cy="490.6" r="5.0" stroke="#000" fill="none" stroke-width="1.2"/>
<line x1="523.4" y1="490.6" x2="541.0" y2="490.6" stroke="#000" stroke-width="0.5"/>
<line x1="532.2" y1="499.4" x2="532.2" y2="481.8" stroke="#000" stroke-width="0.5"/>
<circle cx="532.2" cy="216.7" r="5.0" stroke="#000" fill="none" stroke-width="1.2"/>
<line x1="523.4" y1="216.7" x2="541.0" y2="216.7" stroke="#000" stroke-width="0.5"/>
<line x1="532.2" y1="225.5" x2="532.2" y2="207.9" stroke="#000" stroke-width="0.5"/>
<line x1="395.3" y1="529.7" x2="395.3" y2="177.7" stroke="#06c" stroke-width="0.5" stroke-dasharray="6,3"/>
<text x="395.3" y="344.9" font-size="11" font-family="sans-serif" text-anchor="middle" fill="#111" font-weight="bold">Ø138</text>
<text x="395.3" y="380.1" font-size="9" font-family="sans-serif" text-anchor="middle" fill="#111">4 × паз M4 4.5×5.5 на □124.5</text>
<text x="395.3" y="406.5" font-size="9" font-family="sans-serif" text-anchor="middle" fill="#06c">фланец duct 150×150 (сзади)</text>
<circle cx="826.5" cy="353.6" r="151.8" stroke="#000" fill="none" stroke-width="1.4"/>
<circle cx="826.5" cy="353.6" r="154.0" stroke="#888" fill="none" stroke-width="0.8" stroke-dasharray="3,3"/>
<rect x="661.5" y="188.7" width="330.0" height="330.0" stroke="#06c" fill="none" stroke-width="0.8" stroke-dasharray="3,2"/>
<circle cx="689.5" cy="490.6" r="5.0" stroke="#000" fill="none" stroke-width="1.2"/>
<line x1="680.7" y1="490.6" x2="698.3" y2="490.6" stroke="#000" stroke-width="0.5"/>
<line x1="689.5" y1="499.4" x2="689.5" y2="481.8" stroke="#000" stroke-width="0.5"/>
<circle cx="689.5" cy="216.7" r="5.0" stroke="#000" fill="none" stroke-width="1.2"/>
<line x1="680.7" y1="216.7" x2="698.3" y2="216.7" stroke="#000" stroke-width="0.5"/>
<line x1="689.5" y1="225.5" x2="689.5" y2="207.9" stroke="#000" stroke-width="0.5"/>
<circle cx="963.4" cy="490.6" r="5.0" stroke="#000" fill="none" stroke-width="1.2"/>
<line x1="954.6" y1="490.6" x2="972.2" y2="490.6" stroke="#000" stroke-width="0.5"/>
<line x1="963.4" y1="499.4" x2="963.4" y2="481.8" stroke="#000" stroke-width="0.5"/>
<circle cx="963.4" cy="216.7" r="5.0" stroke="#000" fill="none" stroke-width="1.2"/>
<line x1="954.6" y1="216.7" x2="972.2" y2="216.7" stroke="#000" stroke-width="0.5"/>
<line x1="963.4" y1="225.5" x2="963.4" y2="207.9" stroke="#000" stroke-width="0.5"/>
<line x1="826.5" y1="529.7" x2="826.5" y2="177.7" stroke="#06c" stroke-width="0.5" stroke-dasharray="6,3"/>
<text x="826.5" y="344.9" font-size="11" font-family="sans-serif" text-anchor="middle" fill="#111" font-weight="bold">Ø138</text>
<text x="826.5" y="380.1" font-size="9" font-family="sans-serif" text-anchor="middle" fill="#111">4 × паз M4 4.5×5.5 на □124.5</text>
<text x="826.5" y="406.5" font-size="9" font-family="sans-serif" text-anchor="middle" fill="#06c">фланец duct 150×150 (сзади)</text>
<line x1="610.9" y1="597.3" x2="610.9" y2="110.0" stroke="#06c" stroke-width="0.5" stroke-dasharray="8,4"/>
<line x1="80.0" y1="619.3" x2="395.3" y2="619.3" stroke="#b00" stroke-width="0.8"/>
<line x1="80.0" y1="623.7" x2="80.0" y2="614.9" stroke="#b00" stroke-width="0.8"/>
<line x1="395.3" y1="623.7" x2="395.3" y2="614.9" stroke="#b00" stroke-width="0.8"/>
<text x="237.6" y="614.9" font-size="10" font-family="sans-serif" text-anchor="middle" fill="#b00">143.3</text>
<line x1="395.3" y1="619.3" x2="826.5" y2="619.3" stroke="#b00" stroke-width="0.8"/>
<line x1="395.3" y1="623.7" x2="395.3" y2="614.9" stroke="#b00" stroke-width="0.8"/>
<line x1="826.5" y1="623.7" x2="826.5" y2="614.9" stroke="#b00" stroke-width="0.8"/>
<text x="610.9" y="614.9" font-size="10" font-family="sans-serif" text-anchor="middle" fill="#b00">196</text>
<line x1="826.5" y1="619.3" x2="1141.7" y2="619.3" stroke="#b00" stroke-width="0.8"/>
<line x1="826.5" y1="623.7" x2="826.5" y2="614.9" stroke="#b00" stroke-width="0.8"/>
<line x1="1141.7" y1="623.7" x2="1141.7" y2="614.9" stroke="#b00" stroke-width="0.8"/>
<text x="984.1" y="614.9" font-size="10" font-family="sans-serif" text-anchor="middle" fill="#b00">143.3</text>
<line x1="80.0" y1="650.1" x2="1141.7" y2="650.1" stroke="#b00" stroke-width="0.8"/>
<line x1="80.0" y1="654.5" x2="80.0" y2="645.7" stroke="#b00" stroke-width="0.8"/>
<line x1="1141.7" y1="654.5" x2="1141.7" y2="645.7" stroke="#b00" stroke-width="0.8"/>
<text x="610.9" y="645.7" font-size="10" font-family="sans-serif" text-anchor="middle" fill="#b00">482.6 [SOURCE]</text>
<line x1="258.3" y1="186.4" x2="532.2" y2="186.4" stroke="#b00" stroke-width="0.8"/>
<line x1="258.3" y1="190.9" x2="258.3" y2="182.1" stroke="#b00" stroke-width="0.8"/>
<line x1="532.2" y1="190.9" x2="532.2" y2="182.1" stroke="#b00" stroke-width="0.8"/>
<text x="395.3" y="182.1" font-size="10" font-family="sans-serif" text-anchor="middle" fill="#b00">124.5 ±0.5</text>
<line x1="1154.9" y1="597.3" x2="1154.9" y2="353.6" stroke="#b00" stroke-width="0.8"/>
<line x1="1150.5" y1="597.3" x2="1159.3" y2="597.3" stroke="#b00" stroke-width="0.8"/>
<line x1="1150.5" y1="353.6" x2="1159.3" y2="353.6" stroke="#b00" stroke-width="0.8"/>
<text x="1159.3" y="475.5" font-size="10" font-family="sans-serif" text-anchor="middle" fill="#b00" transform="rotate(-90 1159.3 475.5)">ось = shelf_top_z + 78 = TO_MEASURE</text>
<line x1="1194.5" y1="597.3" x2="1194.5" y2="110.0" stroke="#b00" stroke-width="0.8"/>
<line x1="1190.1" y1="597.3" x2="1198.9" y2="597.3" stroke="#b00" stroke-width="0.8"/>
<line x1="1190.1" y1="110.0" x2="1198.9" y2="110.0" stroke="#b00" stroke-width="0.8"/>
<text x="1198.9" y="353.6" font-size="10" font-family="sans-serif" text-anchor="middle" fill="#b00" transform="rotate(-90 1198.9 353.6)">221.5 [SOURCE]</text>
<line x1="993.7" y1="490.6" x2="993.7" y2="216.7" stroke="#b00" stroke-width="0.8"/>
<line x1="989.3" y1="490.6" x2="998.1" y2="490.6" stroke="#b00" stroke-width="0.8"/>
<line x1="989.3" y1="216.7" x2="998.1" y2="216.7" stroke="#b00" stroke-width="0.8"/>
<text x="998.1" y="353.6" font-size="10" font-family="sans-serif" text-anchor="middle" fill="#b00" transform="rotate(-90 998.1 353.6)">124.5</text>
<text x="84.4" y="672.1" font-size="10" font-family="sans-serif" text-anchor="start" fill="#b00">Допустимая ось выреза: 90…131.5 мм от нижнего края (фланец 150 ≥ 15 мм от краёв) ⇒ shelf_top_z ∈ [12; 53.5]</text>
<text x="84.4" y="698.5" font-size="10" font-family="sans-serif" text-anchor="start" fill="#b00" font-weight="bold">Вырезы нарисованы на оси 110.75 — середина допуска, ТОЛЬКО для иллюстрации. Не резать до замера shelf_top_z.</text>
<text x="84.4" y="724.9" font-size="10" font-family="sans-serif" text-anchor="start" fill="#111">Толщина листа panel_t = TO_MEASURE; крепёжные уши ФП-5 без изменений (шаг panel_hole_pitch_v = TO_MEASURE)</text>
</svg>
