<svg xmlns="http://www.w3.org/2000/svg" width="884" height="924" viewBox="0 0 884 924">
<rect width="100%" height="100%" fill="#fff"/>
<text x="80" y="50" font-size="18" font-family="sans-serif" font-weight="bold">ВИД СВЕРХУ — модуль (X: ширина, Y: глубина, панель внизу). Размеры в мм — ширина плиты УСЛОВНА</text>
<rect x="80.0" y="782.0" width="723.9" height="22.5" stroke="#222" fill="#bbb" stroke-width="1.2"/>
<text x="86.0" y="795.5" font-size="9" font-family="sans-serif" text-anchor="start" fill="#111">ФП-5 482.6</text>
<rect x="108.3" y="177.5" width="667.3" height="601.5" stroke="#000" fill="#eee" stroke-width="1.2" stroke-dasharray="6,4"/>
<line x1="442.0" y1="804.5" x2="442.0" y2="177.5" stroke="#06c" stroke-width="0.5" stroke-dasharray="8,4"/>
<rect x="190.0" y="741.5" width="210.0" height="40.5" stroke="#222" fill="#9cf" stroke-width="1.2"/>
<text x="295.0" y="761.8" font-size="9" font-family="sans-serif" text-anchor="middle" fill="#111">P14 Pro 140×27</text>
<rect x="244.9" y="804.5" width="100.2" height="36.6" stroke="#070" fill="#cfc" stroke-width="1.2"/>
<text x="295.0" y="822.8" font-size="7" font-family="sans-serif" text-anchor="middle" fill="#070">контроллер (над вентилятором)</text>
<rect x="182.5" y="666.5" width="225.0" height="75.0" stroke="#222" fill="#eef" stroke-width="1.2"/>
<polygon points="182.5,666.5 407.5,666.5 407.3,570.5 182.6,570.5" stroke="#222" fill="#eef" stroke-width="1.2"/>
<text x="295.0" y="656.0" font-size="9" font-family="sans-serif" text-anchor="middle" fill="#111">duct</text>
<rect x="159.2" y="321.5" width="271.5" height="240.0" stroke="#555" fill="none" stroke-width="1.2" stroke-dasharray="3,2"/>
<rect x="181.7" y="327.5" width="226.5" height="226.5" stroke="#222" fill="#444" stroke-width="1.2"/>
<text x="295.0" y="440.8" font-size="10" font-family="sans-serif" text-anchor="middle" fill="#fff">MSI EdgeXpert 1</text>
<rect x="181.7" y="192.5" width="226.5" height="135.0" stroke="#e73" fill="#fca" stroke-width="1.2" stroke-dasharray="3,2"/>
<text x="295.0" y="260.0" font-size="9" font-family="sans-serif" text-anchor="middle" fill="#111">выхлоп →</text>
<rect x="484.0" y="741.5" width="210.0" height="40.5" stroke="#222" fill="#9cf" stroke-width="1.2"/>
<text x="589.0" y="761.8" font-size="9" font-family="sans-serif" text-anchor="middle" fill="#111">P14 Pro 140×27</text>
<rect x="538.9" y="804.5" width="100.2" height="36.6" stroke="#070" fill="#cfc" stroke-width="1.2"/>
<text x="589.0" y="822.8" font-size="7" font-family="sans-serif" text-anchor="middle" fill="#070">контроллер (над вентилятором)</text>
<rect x="476.5" y="666.5" width="225.0" height="75.0" stroke="#222" fill="#eef" stroke-width="1.2"/>
<polygon points="476.5,666.5 701.5,666.5 701.3,570.5 476.6,570.5" stroke="#222" fill="#eef" stroke-width="1.2"/>
<text x="589.0" y="656.0" font-size="9" font-family="sans-serif" text-anchor="middle" fill="#111">duct</text>
<rect x="453.2" y="321.5" width="271.5" height="240.0" stroke="#555" fill="none" stroke-width="1.2" stroke-dasharray="3,2"/>
<rect x="475.7" y="327.5" width="226.5" height="226.5" stroke="#222" fill="#444" stroke-width="1.2"/>
<text x="589.0" y="440.8" font-size="10" font-family="sans-serif" text-anchor="middle" fill="#fff">MSI EdgeXpert 2</text>
<rect x="475.7" y="192.5" width="226.5" height="135.0" stroke="#e73" fill="#fca" stroke-width="1.2" stroke-dasharray="3,2"/>
<text x="589.0" y="260.0" font-size="9" font-family="sans-serif" text-anchor="middle" fill="#111">выхлоп →</text>
<rect x="130.0" y="704.0" width="45.0" height="75.0" stroke="#555" fill="#ccc" stroke-width="1.2"/>
<rect x="709.0" y="704.0" width="45.0" height="75.0" stroke="#555" fill="#ccc" stroke-width="1.2"/>
<rect x="111.3" y="570.5" width="68.1" height="123.0" stroke="#2a2" fill="#cfc" stroke-width="1.2" stroke-dasharray="3,2"/>
<text x="145.4" y="632.0" font-size="7" font-family="sans-serif" text-anchor="middle" fill="#070" transform="rotate(-90 145.4 632.0)">WAGO +/−</text>
<rect x="704.5" y="570.5" width="68.1" height="123.0" stroke="#2a2" fill="#cfc" stroke-width="1.2" stroke-dasharray="3,2"/>
<text x="738.5" y="632.0" font-size="7" font-family="sans-serif" text-anchor="middle" fill="#070" transform="rotate(-90 738.5 632.0)">DC-гнездо</text>
<line x1="295.0" y1="168.5" x2="589.0" y2="168.5" stroke="#b00" stroke-width="0.8"/>
<line x1="295.0" y1="171.5" x2="295.0" y2="165.5" stroke="#b00" stroke-width="0.8"/>
<line x1="589.0" y1="171.5" x2="589.0" y2="165.5" stroke="#b00" stroke-width="0.8"/>
<text x="442.0" y="165.5" font-size="10" font-family="sans-serif" text-anchor="middle" fill="#b00">196</text>
<line x1="159.2" y1="150.5" x2="430.7" y2="150.5" stroke="#b00" stroke-width="0.8"/>
<line x1="159.2" y1="153.5" x2="159.2" y2="147.5" stroke="#b00" stroke-width="0.8"/>
<line x1="430.7" y1="153.5" x2="430.7" y2="147.5" stroke="#b00" stroke-width="0.8"/>
<text x="295.0" y="147.5" font-size="10" font-family="sans-serif" text-anchor="middle" fill="#b00">трак 181</text>
<line x1="108.3" y1="132.5" x2="775.6" y2="132.5" stroke="#b00" stroke-width="0.8"/>
<line x1="108.3" y1="135.5" x2="108.3" y2="129.5" stroke="#b00" stroke-width="0.8"/>
<line x1="775.6" y1="135.5" x2="775.6" y2="129.5" stroke="#b00" stroke-width="0.8"/>
<text x="442.0" y="129.5" font-size="10" font-family="sans-serif" text-anchor="middle" fill="#b00">base_plate = rack_opening_w − 6 = TO_MEASURE</text>
<line x1="80.0" y1="114.5" x2="803.9" y2="114.5" stroke="#b00" stroke-width="0.8"/>
<line x1="80.0" y1="117.5" x2="80.0" y2="111.5" stroke="#b00" stroke-width="0.8"/>
<line x1="803.9" y1="117.5" x2="803.9" y2="111.5" stroke="#b00" stroke-width="0.8"/>
<text x="442.0" y="111.5" font-size="10" font-family="sans-serif" text-anchor="middle" fill="#b00">панель 482.6</text>
<line x1="812.9" y1="782.0" x2="812.9" y2="741.5" stroke="#b00" stroke-width="0.8"/>
<line x1="809.9" y1="782.0" x2="815.9" y2="782.0" stroke="#b00" stroke-width="0.8"/>
<line x1="809.9" y1="741.5" x2="815.9" y2="741.5" stroke="#b00" stroke-width="0.8"/>
<text x="815.9" y="761.8" font-size="10" font-family="sans-serif" text-anchor="middle" fill="#b00" transform="rotate(-90 815.9 761.8)">27</text>
<line x1="812.9" y1="741.5" x2="812.9" y2="561.5" stroke="#b00" stroke-width="0.8"/>
<line x1="809.9" y1="741.5" x2="815.9" y2="741.5" stroke="#b00" stroke-width="0.8"/>
<line x1="809.9" y1="561.5" x2="815.9" y2="561.5" stroke="#b00" stroke-width="0.8"/>
<text x="815.9" y="651.5" font-size="10" font-family="sans-serif" text-anchor="middle" fill="#b00" transform="rotate(-90 815.9 651.5)">duct 120</text>
<line x1="812.9" y1="561.5" x2="812.9" y2="327.5" stroke="#b00" stroke-width="0.8"/>
<line x1="809.9" y1="561.5" x2="815.9" y2="561.5" stroke="#b00" stroke-width="0.8"/>
<line x1="809.9" y1="327.5" x2="815.9" y2="327.5" stroke="#b00" stroke-width="0.8"/>
<text x="815.9" y="444.5" font-size="10" font-family="sans-serif" text-anchor="middle" fill="#b00" transform="rotate(-90 815.9 444.5)">5 + MSI 151</text>
<line x1="812.9" y1="327.5" x2="812.9" y2="192.5" stroke="#b00" stroke-width="0.8"/>
<line x1="809.9" y1="327.5" x2="815.9" y2="327.5" stroke="#b00" stroke-width="0.8"/>
<line x1="809.9" y1="192.5" x2="815.9" y2="192.5" stroke="#b00" stroke-width="0.8"/>
<text x="815.9" y="260.0" font-size="10" font-family="sans-serif" text-anchor="middle" fill="#b00" transform="rotate(-90 815.9 260.0)">выхлоп 90</text>
<line x1="836.9" y1="782.0" x2="836.9" y2="192.5" stroke="#b00" stroke-width="0.8"/>
<line x1="833.9" y1="782.0" x2="839.9" y2="782.0" stroke="#b00" stroke-width="0.8"/>
<line x1="833.9" y1="192.5" x2="839.9" y2="192.5" stroke="#b00" stroke-width="0.8"/>
<text x="839.9" y="487.2" font-size="10" font-family="sans-serif" text-anchor="middle" fill="#b00" transform="rotate(-90 839.9 487.2)">393</text>
</svg>
